<svg xmlns="http://www.w3.org/2000/svg" width="1377" height="515" fill="none" viewBox="0 0 1377 515"><rect width="1377" height="515" fill="#fff"/><path fill="#000" d="M601.08 172.6H634.68L697.32 343H663.24L647.4 300.52H587.88L572.28 343H538.2L601.08 172.6ZM641.4 277.24L617.88 206.92L593.4 277.24H641.4ZM756.894 345.4C748.894 345.4 741.534 343.72 734.814 340.36C728.094 336.84 722.254 332.12 717.294 326.2C712.334 320.28 708.494 313.32 705.774 305.32C703.214 297.32 701.934 288.84 701.934 279.88C701.934 270.76 703.374 262.28 706.254 254.44C709.294 246.6 713.454 239.72 718.734 233.8C724.014 227.88 730.254 223.32 737.454 220.12C744.654 216.76 752.414 215.08 760.734 215.08C770.334 215.08 778.814 217.32 786.174 221.8C793.534 226.12 799.534 231.88 804.174 239.08V217.24H832.254V394.12H800.094V320.92C790.494 337.24 776.094 345.4 756.894 345.4ZM768.894 318.04C773.534 318.04 777.694 317.16 781.374 315.4C785.214 313.64 788.654 311.24 791.694 308.2C794.894 305 797.694 301.4 800.094 297.4V267.64C799.294 264.12 797.774 260.84 795.534 257.8C793.454 254.76 790.894 252.12 787.854 249.88C784.974 247.48 781.854 245.64 778.494 244.36C775.134 243.08 771.774 242.44 768.414 242.44C763.454 242.44 758.894 243.48 754.734 245.56C750.734 247.64 747.214 250.52 744.174 254.2C741.134 257.72 738.814 261.8 737.214 266.44C735.614 270.92 734.814 275.72 734.814 280.84C734.814 287.72 736.254 293.96 739.134 299.56C742.014 305.16 746.014 309.64 751.134 313C756.254 316.36 762.174 318.04 768.894 318.04ZM860.284 295.96V217.24H892.444V289C892.444 298.6 894.204 305.88 897.724 310.84C901.244 315.64 906.444 318.04 913.324 318.04C917.484 318.04 921.564 317.24 925.564 315.64C929.724 313.88 933.484 311.32 936.844 307.96C940.364 304.6 943.324 300.36 945.724 295.24V217.24H977.884V307C977.884 310.36 978.444 312.76 979.564 314.2C980.844 315.64 982.844 316.52 985.564 316.84V343C982.364 343.48 979.644 343.8 977.404 343.96C975.324 344.28 973.404 344.44 971.644 344.44C965.884 344.44 961.164 343.16 957.484 340.6C953.964 337.88 951.884 334.2 951.244 329.56L950.524 319.48C944.924 327.96 937.724 334.44 928.924 338.92C920.124 343.24 910.444 345.4 899.884 345.4C886.924 345.4 877.084 341.24 870.364 332.92C863.644 324.44 860.284 312.12 860.284 295.96ZM1009.84 343V217.24H1042V343H1009.84ZM1009.84 199.72V167.8H1042V199.72H1009.84ZM1070.78 167.8H1102.94V302.68C1102.94 308.44 1103.9 312.36 1105.82 314.44C1107.74 316.36 1110.38 317.32 1113.74 317.32C1116.3 317.32 1118.94 317 1121.66 316.36C1124.38 315.72 1126.78 314.92 1128.86 313.96L1133.18 338.44C1128.86 340.52 1123.82 342.12 1118.05 343.24C1112.3 344.36 1107.1 344.92 1102.46 344.92C1092.38 344.92 1084.54 342.28 1078.94 337C1073.5 331.56 1070.78 323.88 1070.78 313.96V167.8ZM1138.55 305.8C1138.55 297.64 1140.79 290.52 1145.27 284.44C1149.91 278.2 1156.31 273.4 1164.47 270.04C1172.63 266.68 1181.99 265 1192.55 265C1197.83 265 1203.19 265.4 1208.63 266.2C1214.07 267 1218.79 268.28 1222.79 270.04V263.32C1222.79 255.32 1220.39 249.16 1215.59 244.84C1210.95 240.52 1203.99 238.36 1194.71 238.36C1187.83 238.36 1181.27 239.56 1175.03 241.96C1168.79 244.36 1162.23 247.88 1155.35 252.52L1145.03 231.4C1153.35 225.96 1161.83 221.88 1170.47 219.16C1179.27 216.44 1188.47 215.08 1198.07 215.08C1215.99 215.08 1229.91 219.56 1239.83 228.52C1249.91 237.48 1254.95 250.28 1254.95 266.92V307C1254.95 310.36 1255.51 312.76 1256.63 314.2C1257.91 315.64 1259.91 316.52 1262.63 316.84V343C1259.75 343.48 1257.11 343.88 1254.71 344.2C1252.47 344.52 1250.55 344.68 1248.95 344.68C1242.55 344.68 1237.67 343.24 1234.31 340.36C1231.11 337.48 1229.11 333.96 1228.31 329.8L1227.59 323.32C1222.15 330.36 1215.35 335.8 1207.19 339.64C1199.03 343.48 1190.71 345.4 1182.23 345.4C1173.91 345.4 1166.39 343.72 1159.67 340.36C1153.11 336.84 1147.91 332.12 1144.07 326.2C1140.39 320.12 1138.55 313.32 1138.55 305.8ZM1216.79 312.28C1218.55 310.36 1219.99 308.44 1221.11 306.52C1222.23 304.6 1222.79 302.84 1222.79 301.24V288.52C1218.95 286.92 1214.79 285.72 1210.31 284.92C1205.83 283.96 1201.59 283.48 1197.59 283.48C1189.27 283.48 1182.39 285.32 1176.95 289C1171.67 292.52 1169.03 297.24 1169.03 303.16C1169.03 306.36 1169.91 309.4 1171.67 312.28C1173.43 315.16 1175.99 317.48 1179.35 319.24C1182.71 321 1186.71 321.88 1191.35 321.88C1196.15 321.88 1200.87 321 1205.51 319.24C1210.15 317.32 1213.91 315 1216.79 312.28Z"/><path fill="#F15BB5" d="M370.148 340.182L369.416 338.764L324.473 252.865L324.5 252.812L339.339 224.463L357.61 189.559L436.477 340.182H370.148ZM276.94 252.971L262.098 281.292L231.265 340.182H164.937L229.014 217.827L243.803 189.559L248.383 198.286L276.966 252.865L276.94 252.971ZM482.856 338.041L383.969 149.113C378.76 139.156 368.657 133 357.61 133C346.592 133 336.487 139.156 331.278 149.113L315.573 179.093L300.733 207.467L300.706 207.493L270.134 149.113C264.926 139.156 254.849 133 243.803 133C234.563 133 225.977 137.308 220.402 144.563C219.303 145.981 218.334 147.48 217.47 149.113L205.299 172.401L118.582 338.041C113.556 347.597 113.844 358.867 119.288 368.155C124.732 377.442 134.312 383.009 144.914 383.009H238.437C249.483 383.009 259.586 376.826 264.794 366.896L285.839 326.662L300.68 298.316L300.706 298.263L336.645 366.896C341.853 376.826 351.932 383.009 362.977 383.009H456.5C467.1 383.009 476.706 377.47 482.152 368.155C487.595 358.892 487.857 347.597 482.856 338.041Z"/><path fill="#F586C9" d="M298.672 303.331L283.832 331.678L260.09 286.305L274.931 257.959L298.672 303.331"/><path fill="#F586C9" d="M357.61 189.559L324.492 252.825L300.724 207.455L333.844 144.186L357.61 189.559"/></svg>